<?xml version="1.0" encoding="UTF-8" standalone="no"?>
<svg width="140px" height="35px" viewBox="0 0 180 59" version="1.1" xmlns="http://www.w3.org/2000/svg" xmlns:xlink="http://www.w3.org/1999/xlink" xmlns:sketch="http://www.bohemiancoding.com/sketch/ns">
    <!-- Generator: Sketch 3.3.1 (12002) - http://www.bohemiancoding.com/sketch -->
    <title>Buddy Final v3 CMYK-03</title>
    <desc>Created with Sketch.</desc>
    <defs>
        <path id="path-1" d="M0,0.772 L180,0.772 L180,58.94 L0,58.94 L0,0.772"></path>
    </defs>
    <g id="Page-1" stroke="none" stroke-width="1" fill="none" fill-rule="evenodd" sketch:type="MSPage">
        <g id="Buddy-Final-v3-CMYK-03" sketch:type="MSLayerGroup">
            <g id="Group-6" fill="#000105" sketch:type="MSShapeGroup">
                <path d="M83.773,35.41 C83.773,33.45 82.711,31.777 79.446,31.777 L74.873,31.777 L74.873,39.411 C75.526,39.411 77.649,39.452 78.221,39.452 C82.426,39.452 83.773,38.145 83.773,35.859 L83.773,35.41 L83.773,35.41 Z M83.61,23.082 C83.61,20.836 82.181,19.816 77.976,19.816 C77.323,19.816 75.445,19.816 74.873,19.857 L74.873,26.919 L79.446,26.919 C82.671,26.919 83.61,25.449 83.61,23.694 L83.61,23.082 L83.61,23.082 Z M77.69,45.167 C74.996,45.167 71.812,44.963 70.22,44.677 C68.587,44.391 67.975,43.86 67.975,42.023 L67.975,17.203 C67.975,15.366 68.546,14.795 70.138,14.549 C71.526,14.346 74.833,14.1 77.445,14.1 C85.161,14.1 90.345,16.141 90.345,22.633 L90.345,23.367 C90.345,26.021 89.08,28.307 86.916,29.368 C89.08,30.43 90.549,32.593 90.549,35.41 L90.549,36.022 C90.549,43.207 84.753,45.167 77.69,45.167 L77.69,45.167 Z" id="Fill-1"></path>
                <path d="M103.089,45.167 L102.517,45.167 C99.945,45.167 92.76,44.391 92.76,34.798 L92.76,22.265 C92.76,21.816 93.087,21.408 93.536,21.408 L98.558,21.408 C99.006,21.408 99.374,21.816 99.374,22.265 L99.374,34.798 C99.374,38.676 100.598,39.574 102.517,39.574 L103.089,39.574 C105.007,39.574 106.232,38.676 106.232,34.798 L106.232,22.265 C106.232,21.816 106.599,21.408 107.049,21.408 L112.07,21.408 C112.519,21.408 112.845,21.816 112.845,22.265 L112.845,34.798 C112.845,44.391 105.66,45.167 103.089,45.167" id="Fill-3"></path>
                <path d="M128.488,26.756 C127.508,26.633 126.12,26.552 125.14,26.552 C122.242,26.552 121.466,28.674 121.466,31.532 L121.466,34.716 C121.466,37.614 122.242,39.737 125.14,39.737 C126.487,39.737 127.712,39.615 128.488,39.492 L128.488,26.756 L128.488,26.756 Z M133.795,44.105 C131.468,44.677 128.284,45.167 125.14,45.167 C118.527,45.167 114.894,41.329 114.894,34.716 L114.894,31.532 C114.894,25.123 118.241,21.081 125.14,21.081 C125.957,21.081 127.304,21.204 128.488,21.367 L128.488,14.305 C128.488,13.855 128.855,13.488 129.304,13.488 L134.203,13.488 C134.652,13.488 135.06,13.855 135.06,14.305 L135.06,42.921 C135.06,43.574 134.897,43.86 133.795,44.105 L133.795,44.105 Z" id="Fill-4"></path>
                <path d="M150.907,26.756 C149.927,26.633 148.539,26.552 147.559,26.552 C144.661,26.552 143.885,28.674 143.885,31.532 L143.885,34.716 C143.885,37.614 144.661,39.737 147.559,39.737 C148.907,39.737 150.131,39.615 150.907,39.492 L150.907,26.756 L150.907,26.756 Z M156.214,44.105 C153.887,44.677 150.702,45.167 147.559,45.167 C140.946,45.167 137.312,41.329 137.312,34.716 L137.312,31.532 C137.312,25.123 140.66,21.081 147.559,21.081 C148.376,21.081 149.723,21.204 150.907,21.367 L150.907,14.305 C150.907,13.855 151.274,13.488 151.723,13.488 L156.622,13.488 C157.071,13.488 157.479,13.855 157.479,14.305 L157.479,42.921 C157.479,43.574 157.316,43.86 156.214,44.105 L156.214,44.105 Z" id="Fill-5"></path>
            </g>
            <g id="Group-10">
                <mask id="mask-2" sketch:name="Clip 8" fill="white">
                    <use xlink:href="#path-1"></use>
                </mask>
                <g id="Clip-8"></g>
                <path d="M170.121,53.045 C166.61,53.045 163.794,52.433 162.324,51.943 C161.752,51.739 161.508,51.494 161.508,50.882 L161.508,48.147 C161.508,47.738 161.793,47.412 162.242,47.412 L162.324,47.412 C164.161,47.575 168.162,47.902 170.121,47.902 C172.938,47.902 173.509,47.249 173.509,44.881 L173.509,44.432 C172.775,44.595 171.019,44.799 170.08,44.799 C163.181,44.799 159.834,40.717 159.834,34.308 L159.834,22.224 C159.834,21.775 160.201,21.408 160.65,21.408 L165.59,21.408 C166.039,21.408 166.406,21.775 166.406,22.224 L166.406,34.308 C166.406,37.165 167.182,39.37 170.08,39.37 C171.06,39.37 172.53,39.247 173.509,39.125 L173.509,22.224 C173.509,21.775 173.877,21.408 174.326,21.408 L179.184,21.408 C179.633,21.408 180,21.775 180,22.224 L180,44.881 C180,50.759 176.857,53.045 170.121,53.045" id="Fill-7" fill="#000105" sketch:type="MSShapeGroup" mask="url(#mask-2)"></path>
                <path d="M58.838,28.923 C58.559,26.934 57.521,25.174 55.916,23.965 C54.668,23.024 53.185,22.502 51.631,22.455 L51.397,22.452 C49.05,22.452 46.804,23.57 45.388,25.445 C45.088,25.845 44.83,26.269 44.618,26.709 C43.89,24.142 42.368,21.887 40.199,20.25 C40.072,20.154 39.939,20.069 39.808,19.978 L40.339,18.818 C40.495,18.83 40.65,18.845 40.808,18.85 C40.901,18.853 40.993,18.855 41.086,18.855 C43.913,18.855 46.615,17.509 48.314,15.253 C49.766,13.322 50.382,10.944 50.046,8.554 C49.71,6.163 48.463,4.045 46.534,2.592 C45.031,1.46 43.248,0.832 41.378,0.776 C38.443,0.687 35.628,2.043 33.871,4.37 C32.418,6.3 31.803,8.679 32.139,11.069 C32.476,13.463 33.723,15.582 35.651,17.033 C35.735,17.096 35.824,17.153 35.909,17.213 L35.512,18.082 C34.751,17.911 33.973,17.803 33.181,17.779 C31.959,17.742 30.753,17.891 29.598,18.204 C29.661,18.126 29.732,18.055 29.793,17.975 C32.285,14.665 31.622,9.942 28.314,7.448 C27.066,6.506 25.583,5.984 24.027,5.938 L23.79,5.934 C21.444,5.934 19.199,7.053 17.783,8.928 C15.29,12.239 15.954,16.962 19.265,19.459 C20.513,20.397 21.995,20.918 23.551,20.966 L23.785,20.97 C24.053,20.97 24.318,20.951 24.582,20.923 C23.992,21.45 23.448,22.034 22.965,22.675 C21.046,25.221 20.211,28.345 20.58,31.502 L17.268,32.343 C16.652,30.989 15.706,29.8 14.485,28.879 C12.986,27.75 11.203,27.123 9.329,27.064 C6.399,26.958 3.576,28.332 1.823,30.66 C0.368,32.59 -0.247,34.969 0.09,37.359 C0.426,39.751 1.673,41.869 3.602,43.323 C5.102,44.453 6.885,45.081 8.758,45.14 C8.851,45.143 8.942,45.145 9.035,45.145 C11.861,45.145 14.564,43.798 16.264,41.542 C17.278,40.196 17.874,38.629 18.034,36.993 L22.003,35.985 C22.831,37.499 23.969,38.84 25.39,39.909 C27.434,41.449 29.86,42.305 32.404,42.383 C32.531,42.386 32.657,42.389 32.784,42.389 C32.948,42.389 33.11,42.366 33.274,42.36 C32.383,42.931 31.588,43.656 30.941,44.516 C27.943,48.498 28.741,54.18 32.72,57.182 C34.22,58.311 36.004,58.938 37.876,58.995 C37.969,58.998 38.062,59 38.155,59 C40.98,59 43.682,57.654 45.384,55.398 C48.384,51.418 47.585,45.738 43.603,42.736 C42.131,41.628 40.388,41.006 38.558,40.929 C40.13,40.094 41.531,38.933 42.622,37.486 C43.578,36.219 44.261,34.806 44.667,33.318 C45.18,34.351 45.922,35.261 46.868,35.974 C48.118,36.915 49.601,37.438 51.157,37.485 L51.386,37.489 C53.736,37.489 55.984,36.37 57.402,34.493 C58.609,32.885 59.118,30.907 58.838,28.923" id="Fill-9" fill="#C6C7C6" sketch:type="MSShapeGroup" mask="url(#mask-2)"></path>
            </g>
            <g id="Group-22" transform="translate(1.000000, 1.000000)" sketch:type="MSShapeGroup">
                <path d="M13.45,39.108 C12.159,40.822 10.188,41.804 8.039,41.804 C6.562,41.804 5.156,41.333 3.973,40.441 C0.993,38.194 0.394,33.941 2.639,30.96 C3.929,29.246 5.902,28.264 8.048,28.264 C9.525,28.264 10.932,28.736 12.117,29.631 C13.247,30.48 14.058,31.636 14.482,32.954 C14.6,33.322 14.693,33.7 14.748,34.09 C14.811,34.537 14.829,34.983 14.804,35.423 C14.73,36.749 14.267,38.024 13.45,39.108" id="Fill-11" fill="#F9C623"></path>
                <path d="M14.748,34.09 C14.693,33.7 14.6,33.322 14.482,32.954 C14.058,31.636 13.247,30.48 12.117,29.631 C10.932,28.736 9.525,28.264 8.048,28.264 C5.902,28.264 3.929,29.246 2.639,30.96 C0.394,33.941 0.993,38.194 3.973,40.441 C5.156,41.333 6.562,41.804 8.039,41.804 C10.188,41.804 12.159,40.822 13.45,39.108 C14.267,38.024 14.73,36.749 14.804,35.423 C14.829,34.983 14.811,34.537 14.748,34.09" id="Fill-13" fill="#F9C623"></path>
                <path d="M41.006,43.792 C39.89,42.95 38.564,42.504 37.171,42.504 C35.145,42.504 33.285,43.432 32.068,45.047 C31.04,46.411 30.604,48.092 30.842,49.781 C31.079,51.469 31.96,52.964 33.322,53.991 C34.439,54.831 35.765,55.275 37.158,55.275 C39.185,55.275 41.046,54.349 42.265,52.733 C44.381,49.922 43.817,45.91 41.006,43.792" id="Fill-14" fill="#6CB744"></path>
                <path d="M53.246,25.122 C52.416,24.497 51.432,24.167 50.399,24.167 C48.897,24.167 47.518,24.855 46.615,26.053 C45.043,28.138 45.461,31.113 47.546,32.686 C48.374,33.309 49.357,33.639 50.39,33.639 C51.894,33.639 53.274,32.951 54.178,31.752 C55.749,29.666 55.33,26.691 53.246,25.122" id="Fill-15" fill="#D9222A"></path>
                <path d="M39.238,34.619 C38.202,35.992 36.843,37.012 35.31,37.635 C34.544,37.946 33.738,38.167 32.899,38.265 C32.533,38.308 32.163,38.33 31.787,38.33 C29.754,38.33 27.817,37.681 26.188,36.454 C25.003,35.561 24.102,34.434 23.48,33.19 C23.105,32.44 22.835,31.647 22.673,30.832 C22.173,28.318 22.694,25.611 24.355,23.407 C25.003,22.548 25.777,21.827 26.64,21.252 C27.337,20.786 28.095,20.426 28.894,20.167 C29.819,19.865 30.796,19.696 31.805,19.696 C32.669,19.696 33.514,19.82 34.327,20.05 C35.125,20.275 35.892,20.606 36.61,21.042 C36.881,21.206 37.147,21.379 37.404,21.573 C39.558,23.196 40.798,25.583 41.051,28.077 C41.135,28.902 41.113,29.737 40.975,30.562 C40.737,31.991 40.168,33.384 39.238,34.619" id="Fill-16" fill="#00A3DB"></path>
                <path d="M41.051,28.077 C40.798,25.583 39.558,23.196 37.404,21.573 C37.147,21.379 36.881,21.206 36.61,21.042 C35.892,20.606 35.125,20.275 34.327,20.05 C33.514,19.82 32.669,19.696 31.805,19.696 C30.796,19.696 29.819,19.865 28.894,20.167 C28.095,20.426 27.337,20.786 26.64,21.252 C25.777,21.827 25.003,22.548 24.355,23.407 C22.694,25.611 22.173,28.318 22.673,30.832 C22.835,31.647 23.105,32.44 23.48,33.19 C24.102,34.434 25.003,35.561 26.188,36.454 C27.817,37.681 29.754,38.33 31.787,38.33 C32.163,38.33 32.533,38.308 32.899,38.265 C33.738,38.167 34.544,37.946 35.31,37.635 C36.843,37.012 38.202,35.992 39.238,34.619 C40.168,33.384 40.737,31.991 40.975,30.562 C41.113,29.737 41.135,28.902 41.051,28.077" id="Fill-17" fill="#00A3DB"></path>
                <path d="M46.256,7.879 C46.025,6.233 45.166,4.777 43.839,3.776 C42.751,2.956 41.457,2.523 40.099,2.523 C38.125,2.523 36.311,3.426 35.124,5 C33.062,7.741 33.612,11.65 36.35,13.713 C37.439,14.533 38.732,14.966 40.09,14.966 C42.065,14.966 43.877,14.063 45.063,12.488 C46.063,11.161 46.487,9.524 46.256,7.879" id="Fill-18" fill="#D8117D"></path>
                <path d="M26.899,15.481 C25.917,16.783 24.418,17.529 22.786,17.529 C21.663,17.529 20.594,17.171 19.694,16.494 C17.431,14.785 16.976,11.554 18.682,9.29 C19.663,7.987 21.164,7.241 22.798,7.241 C23.92,7.241 24.988,7.598 25.886,8.274 C28.151,9.982 28.605,13.215 26.899,15.481" id="Fill-19" fill="#E6762A"></path>
                <path d="M25.886,8.274 C24.988,7.598 23.92,7.241 22.798,7.241 C21.164,7.241 19.663,7.987 18.682,9.29 C16.976,11.554 17.431,14.785 19.694,16.494 C20.594,17.171 21.663,17.529 22.786,17.529 C24.418,17.529 25.917,16.783 26.899,15.481 C28.605,13.215 28.151,9.982 25.886,8.274" id="Fill-20" fill="#E6762A"></path>
                <path d="M53.588,31.307 C52.825,32.319 51.66,32.899 50.391,32.899 C49.519,32.899 48.689,32.621 47.991,32.095 C46.231,30.768 45.879,28.257 47.205,26.498 C47.967,25.487 49.131,24.906 50.398,24.906 C51.27,24.906 52.101,25.185 52.801,25.712 C54.56,27.036 54.913,29.547 53.588,31.307 L53.588,31.307 Z M40.452,30.474 C40.227,31.821 39.69,33.135 38.813,34.299 C37.837,35.594 36.555,36.556 35.109,37.143 C34.387,37.436 33.627,37.644 32.836,37.737 C32.491,37.777 32.142,37.799 31.788,37.799 C29.87,37.799 28.044,37.186 26.508,36.029 C25.391,35.188 24.541,34.125 23.954,32.952 C23.601,32.244 23.346,31.497 23.194,30.729 C22.722,28.357 23.214,25.805 24.78,23.727 C25.39,22.917 26.121,22.237 26.934,21.694 C27.591,21.256 28.307,20.916 29.059,20.671 C29.932,20.387 30.853,20.228 31.804,20.228 C32.619,20.228 33.416,20.345 34.182,20.561 C34.935,20.773 35.658,21.086 36.335,21.497 C36.591,21.651 36.842,21.815 37.084,21.997 C39.115,23.528 40.284,25.779 40.523,28.13 C40.602,28.908 40.581,29.696 40.452,30.474 L40.452,30.474 Z M37.169,43.37 C38.374,43.37 39.52,43.755 40.485,44.483 C42.915,46.314 43.403,49.782 41.573,52.213 C40.52,53.609 38.911,54.41 37.158,54.41 C35.954,54.41 34.808,54.026 33.842,53.3 C32.664,52.412 31.903,51.12 31.698,49.66 C31.493,48.2 31.869,46.747 32.759,45.568 C33.81,44.171 35.418,43.37 37.169,43.37 L37.169,43.37 Z M22.787,16.381 C21.915,16.381 21.084,16.103 20.385,15.577 C18.627,14.25 18.273,11.74 19.599,9.981 C20.361,8.969 21.527,8.389 22.796,8.389 C23.668,8.389 24.498,8.666 25.195,9.192 C26.954,10.518 27.307,13.03 25.982,14.79 C25.219,15.801 24.055,16.381 22.787,16.381 L22.787,16.381 Z M35.685,5.422 C36.738,4.026 38.347,3.225 40.099,3.225 C41.303,3.225 42.451,3.609 43.417,4.337 C44.594,5.224 45.356,6.516 45.561,7.976 C45.766,9.436 45.39,10.888 44.503,12.066 C43.451,13.463 41.843,14.264 40.091,14.264 C38.886,14.264 37.739,13.88 36.773,13.152 C34.343,11.322 33.855,7.854 35.685,5.422 L35.685,5.422 Z M13.557,35.352 C13.497,36.432 13.119,37.472 12.453,38.357 C11.401,39.754 9.793,40.555 8.04,40.555 C6.836,40.555 5.69,40.17 4.725,39.443 C2.295,37.611 1.806,34.143 3.637,31.712 C4.689,30.314 6.298,29.513 8.048,29.513 C9.253,29.513 10.399,29.898 11.366,30.628 C12.287,31.321 12.949,32.263 13.294,33.338 C13.39,33.638 13.466,33.946 13.511,34.264 C13.563,34.629 13.577,34.992 13.557,35.352 L13.557,35.352 Z M54.213,23.836 C53.103,23 51.784,22.558 50.398,22.558 C48.386,22.558 46.539,23.48 45.33,25.084 C44.63,26.013 44.231,27.075 44.104,28.154 L42.879,28.146 C42.637,25.075 41.144,22.117 38.496,20.122 C38.117,19.837 37.721,19.586 37.317,19.353 L38.635,16.473 C39.111,16.562 39.597,16.612 40.091,16.612 C42.587,16.612 44.878,15.47 46.378,13.479 C47.643,11.801 48.178,9.73 47.886,7.65 C47.594,5.569 46.508,3.726 44.829,2.461 C43.453,1.425 41.818,0.877 40.099,0.877 C37.604,0.877 35.311,2.018 33.809,4.01 C31.201,7.476 31.897,12.419 35.36,15.028 C35.695,15.28 36.046,15.502 36.409,15.696 L35.17,18.404 C34.092,18.061 32.962,17.88 31.804,17.88 C30.411,17.88 29.066,18.141 27.813,18.618 L26.939,17.18 C27.273,16.889 27.583,16.566 27.857,16.202 C29.961,13.409 29.401,9.423 26.608,7.317 C25.499,6.482 24.181,6.041 22.796,6.041 C20.783,6.041 18.935,6.961 17.723,8.568 C15.62,11.361 16.18,15.345 18.972,17.451 C20.082,18.288 21.401,18.729 22.787,18.729 C23.526,18.729 24.242,18.603 24.913,18.366 L25.711,19.681 C24.649,20.377 23.698,21.261 22.905,22.314 C20.894,24.982 20.279,28.268 20.917,31.307 L15.543,32.672 C15.057,31.116 14.107,29.751 12.779,28.752 C11.403,27.715 9.767,27.166 8.048,27.166 C5.553,27.166 3.262,28.307 1.762,30.299 C-0.848,33.764 -0.152,38.708 3.312,41.318 C4.687,42.355 6.322,42.903 8.04,42.903 C10.536,42.903 12.828,41.76 14.328,39.769 C15.376,38.377 15.915,36.715 15.905,35.003 L21.634,33.548 C22.376,35.218 23.535,36.729 25.095,37.905 C27.042,39.372 29.357,40.147 31.788,40.147 C32.369,40.147 32.937,40.087 33.498,40.002 L33.994,41.696 C32.783,42.228 31.71,43.057 30.883,44.155 C29.617,45.835 29.08,47.906 29.373,49.987 C29.665,52.068 30.751,53.91 32.43,55.175 C33.805,56.211 35.44,56.758 37.158,56.758 C39.654,56.758 41.947,55.617 43.448,53.626 C46.057,50.16 45.361,45.218 41.899,42.608 C40.523,41.571 38.888,41.022 37.169,41.022 C36.862,41.022 36.558,41.04 36.258,41.074 L35.772,39.411 C37.698,38.678 39.401,37.42 40.688,35.712 C41.88,34.13 42.578,32.33 42.821,30.494 L44.265,30.504 C44.613,31.841 45.392,33.075 46.578,33.97 C47.687,34.806 49.006,35.247 50.391,35.247 C52.404,35.247 54.253,34.326 55.463,32.719 C57.568,29.925 57.007,25.939 54.213,23.836 L54.213,23.836 Z" id="Fill-21" fill="#000000"></path>
            </g>
        </g>
    </g>
</svg>
